<mxfile host="app.diagrams.net" modified="2023-11-02T12:47:03.314Z" agent="Mozilla/5.0 (Windows NT 10.0; Win64; x64) AppleWebKit/537.36 (KHTML, like Gecko) Chrome/118.0.0.0 Safari/537.36" etag="rcKOoSD7-W9lPoRFdQ7u" version="22.0.8" type="device">
  <diagram name="Page-1" id="L6RAbNXaHesmaP_NvCNo">
    <mxGraphModel dx="989" dy="539" grid="1" gridSize="10" guides="1" tooltips="1" connect="1" arrows="1" fold="1" page="1" pageScale="1" pageWidth="850" pageHeight="1100" math="0" shadow="0">
      <root>
        <mxCell id="0" />
        <mxCell id="1" parent="0" />
        <mxCell id="IUphFo0wEx6A4XLrqr8g-1" value="" style="rounded=0;whiteSpace=wrap;html=1;fillColor=none;perimeterSpacing=0;shadow=0;glass=0;" parent="1" vertex="1">
          <mxGeometry x="200" y="60" width="160" height="440" as="geometry" />
        </mxCell>
        <mxCell id="mvPMxCbyyjY_gmjkTojm-3" value="" style="rounded=0;whiteSpace=wrap;html=1;fillColor=none;perimeterSpacing=0;dashed=1;shadow=0;glass=0;" parent="1" vertex="1">
          <mxGeometry x="210" y="70" width="140" height="260" as="geometry" />
        </mxCell>
        <mxCell id="IUphFo0wEx6A4XLrqr8g-10" value="User" style="shape=umlActor;verticalLabelPosition=bottom;verticalAlign=top;html=1;outlineConnect=0;" parent="1" vertex="1">
          <mxGeometry x="40" y="260" width="30" height="60" as="geometry" />
        </mxCell>
        <mxCell id="IUphFo0wEx6A4XLrqr8g-14" value="SmartWalk" style="rounded=0;whiteSpace=wrap;html=1;fillColor=none;dashed=1;strokeColor=none;spacing=0;spacingRight=0;align=center;fontStyle=1;spacingLeft=4;" parent="1" vertex="1">
          <mxGeometry x="200" y="40" width="160" height="20" as="geometry" />
        </mxCell>
        <mxCell id="6HI-JQgycKmkka_tz_Jz-1" value="&lt;b&gt;UC09&lt;br&gt;&lt;/b&gt;View entity" style="ellipse;whiteSpace=wrap;html=1;strokeWidth=1;" parent="1" vertex="1">
          <mxGeometry x="220" y="100" width="120" height="60" as="geometry" />
        </mxCell>
        <mxCell id="6HI-JQgycKmkka_tz_Jz-3" value="&lt;b&gt;UC10&lt;br&gt;&lt;/b&gt;Edit entity" style="ellipse;whiteSpace=wrap;html=1;strokeWidth=1;" parent="1" vertex="1">
          <mxGeometry x="220" y="180" width="120" height="60" as="geometry" />
        </mxCell>
        <mxCell id="mvPMxCbyyjY_gmjkTojm-7" value="Delete entity" style="ellipse;whiteSpace=wrap;html=1;strokeWidth=1;" parent="1" vertex="1">
          <mxGeometry x="220" y="260" width="120" height="60" as="geometry" />
        </mxCell>
        <mxCell id="JkSxQmI0YxWuVLr7o4dE-1" value="" style="endArrow=none;html=1;rounded=0;" parent="1" source="IUphFo0wEx6A4XLrqr8g-10" target="6HI-JQgycKmkka_tz_Jz-1" edge="1">
          <mxGeometry width="50" height="50" relative="1" as="geometry">
            <mxPoint x="270" y="190" as="sourcePoint" />
            <mxPoint x="320" y="140" as="targetPoint" />
          </mxGeometry>
        </mxCell>
        <mxCell id="JkSxQmI0YxWuVLr7o4dE-2" value="" style="endArrow=none;html=1;rounded=0;" parent="1" source="IUphFo0wEx6A4XLrqr8g-10" target="6HI-JQgycKmkka_tz_Jz-3" edge="1">
          <mxGeometry width="50" height="50" relative="1" as="geometry">
            <mxPoint x="80" y="212" as="sourcePoint" />
            <mxPoint x="170" y="162" as="targetPoint" />
          </mxGeometry>
        </mxCell>
        <mxCell id="JkSxQmI0YxWuVLr7o4dE-3" value="" style="endArrow=none;html=1;rounded=0;" parent="1" source="IUphFo0wEx6A4XLrqr8g-10" target="mvPMxCbyyjY_gmjkTojm-7" edge="1">
          <mxGeometry width="50" height="50" relative="1" as="geometry">
            <mxPoint x="80" y="220" as="sourcePoint" />
            <mxPoint x="150" y="220" as="targetPoint" />
          </mxGeometry>
        </mxCell>
        <mxCell id="JkSxQmI0YxWuVLr7o4dE-4" value="Private storage" style="text;html=1;strokeColor=none;fillColor=none;align=center;verticalAlign=middle;whiteSpace=wrap;rounded=0;fontSize=10;" parent="1" vertex="1">
          <mxGeometry x="210" y="70" width="140" height="20" as="geometry" />
        </mxCell>
        <mxCell id="KtCXYyYIGN8eVlDt03eS-1" value="&lt;b&gt;UC11&lt;br&gt;&lt;/b&gt;Activate&lt;br&gt;Solid Pod" style="ellipse;whiteSpace=wrap;html=1;strokeWidth=1;" vertex="1" parent="1">
          <mxGeometry x="220" y="340" width="120" height="60" as="geometry" />
        </mxCell>
        <mxCell id="KtCXYyYIGN8eVlDt03eS-2" value="&lt;b&gt;UC12&lt;br&gt;&lt;/b&gt;Deactivate&lt;br&gt;Solid Pod" style="ellipse;whiteSpace=wrap;html=1;strokeWidth=1;" vertex="1" parent="1">
          <mxGeometry x="220" y="420" width="120" height="60" as="geometry" />
        </mxCell>
        <mxCell id="KtCXYyYIGN8eVlDt03eS-3" value="" style="endArrow=none;html=1;rounded=0;" edge="1" parent="1" source="IUphFo0wEx6A4XLrqr8g-10" target="KtCXYyYIGN8eVlDt03eS-1">
          <mxGeometry width="50" height="50" relative="1" as="geometry">
            <mxPoint x="80" y="289" as="sourcePoint" />
            <mxPoint x="256" y="165" as="targetPoint" />
          </mxGeometry>
        </mxCell>
        <mxCell id="KtCXYyYIGN8eVlDt03eS-4" value="" style="endArrow=none;html=1;rounded=0;" edge="1" parent="1" source="IUphFo0wEx6A4XLrqr8g-10" target="KtCXYyYIGN8eVlDt03eS-2">
          <mxGeometry width="50" height="50" relative="1" as="geometry">
            <mxPoint x="80" y="305" as="sourcePoint" />
            <mxPoint x="241" y="363" as="targetPoint" />
          </mxGeometry>
        </mxCell>
      </root>
    </mxGraphModel>
  </diagram>
</mxfile>
